Coordinates
version=1
nRows=12
nColumns=23
inDegrees=yes

Units are S.I. units (second, meters, Newtons, ...)
If the header above contains a line with 'inDegrees', this indicates whether rotational values are in degrees (yes) or radians (no).

endheader
time	pelvis_tilt	pelvis_list	pelvis_rotation	pelvis_tx	pelvis_ty	pelvis_tz	hip_flexion_r	hip_adduction_r	hip_rotation_r	knee_angle_r	knee_angle_r_beta	ankle_angle_r	subtalar_angle_r	mtp_angle_r	hip_flexion_l	hip_adduction_l	hip_rotation_l	knee_angle_l	knee_angle_l_beta	ankle_angle_l	subtalar_angle_l	mtp_angle_l
     14.64000000	      1.50899451	     -7.67536652	     -3.64414029	      2.27711912	      1.04408825	      1.02300223	     22.44555568	     10.39441437	     -4.12073983	     21.08189952	      0.36794856	      8.36894582	      1.65846538	      0.00000000	    -14.38321282	     -7.57470482	     -4.70021605	     44.52705169	      0.77714366	    -17.64063007	    -14.07376815	      0.00000000
     14.64666667	      2.12814826	     -7.82893231	     -3.49885796	      2.27713998	      1.04069410	      1.02275923	     21.81018798	     10.44761938	     -4.27175342	     22.39095314	      0.39079585	      7.84238008	      0.14393309	      0.00000000	    -14.25586139	     -7.65641960	     -4.01245189	     46.72203315	      0.81545331	    -16.65362428	    -15.07258051	      0.00000000
     14.65333333	      2.33523049	     -7.93380548	     -3.31010854	      2.27703386	      1.03663423	      1.02253190	     21.62567662	     10.53767533	     -4.13102258	     23.77677935	      0.41498309	      7.10639655	     -2.02731274	      0.00000000	    -13.55835227	     -7.71342319	     -3.16542480	     49.02417311	      0.85563323	    -15.59269423	    -16.08513054	      0.00000000
     14.66000000	      2.33390917	     -7.93973321	     -3.41099115	      2.27671859	      1.03198782	      1.02274309	     21.77546600	     10.67033817	     -3.65614669	     25.49330857	      0.44494217	      6.48975582	     -4.22749543	      0.00000000	    -12.62190372	     -7.66482141	     -2.67240284	     51.33387862	      0.89594520	    -14.50382820	    -17.00015556	      0.00000000
     14.66666667	      2.58229338	     -8.07640323	     -3.34337473	      2.27614862	      1.02748313	      1.02277652	     21.66642451	     10.92099421	     -3.26873713	     27.25798683	      0.47574162	      5.98814438	     -6.46772337	      0.00000000	    -11.88658170	     -7.80692413	     -2.16492006	     53.61623011	      0.93577975	    -13.39026918	    -17.79016800	      0.00000000
     14.67333333	      2.52280527	     -8.18252597	     -3.53869681	      2.27539407	      1.02243353	      1.02331613	     21.97145073	     11.32092910	     -2.52352836	     29.26922164	      0.51084429	      5.66368273	     -8.80478638	      0.00000000	    -10.79697449	     -7.96438783	     -1.97875405	     55.90960895	      0.97580676	    -12.32724428	    -18.52596171	      0.00000000
     14.68000000	      2.57112292	     -8.37363379	     -3.69364077	      2.27449687	      1.01739885	      1.02386311	     22.19759560	     11.82496605	     -1.84907974	     31.40750469	      0.54816437	      5.65262980	    -10.96212974	      0.00000000	     -9.78155243	     -8.26789795	     -1.86447758	     58.15635406	      1.01501986	    -11.27790411	    -19.13904336	      0.00000000
     14.68666667	      3.24962136	     -8.74888237	     -3.68117599	      2.27358245	      1.01305316	      1.02405008	     21.74061116	     12.34581866	     -1.68826601	     33.60165725	      0.58645955	      6.26461876	    -12.05116228	      0.00000000	     -9.46751459	     -8.80106518	     -1.85408457	     60.21961368	      1.05103053	    -10.38382325	    -19.92786968	      0.00000000
     14.69333333	      2.63807746	     -8.98393606	     -4.04785088	      2.27234804	      1.00720721	      1.02521514	     22.69846934	     13.21447313	     -0.48140409	     35.86412817	      0.62594712	      6.47824531	    -14.84383310	      0.00000000	     -7.58557328	     -9.37057958	     -2.01216357	     62.56155405	      1.09190510	     -9.27447604	    -20.12075305	      0.00000000
     14.70000000	      2.51040603	     -9.29261640	     -4.36822676	      2.27119161	      1.00197654	      1.02610019	     23.09887826	     13.98959208	      0.24085932	     38.16352963	      0.66607925	      7.38346621	    -16.31698415	      0.00000000	     -6.27258056	    -10.01194603	     -2.27591671	     64.68282037	      1.12892818	     -8.38028161	    -20.61980132	      0.00000000
     14.70666667	      3.17477827	     -9.71116413	     -4.33934860	      2.26993432	      0.99793909	      1.02627707	     22.54589638	     14.63126359	      0.50012425	     40.27543954	      0.70293903	      8.74810014	    -17.10992685	      0.00000000	     -5.77494108	    -10.70605964	     -2.31084793	     66.56687817	      1.16181120	     -7.70558102	    -21.39032795	      0.00000000
     14.71333333	      2.49075010	    -10.08883077	     -4.81895263	      2.26868351	      0.99236580	      1.02743062	     23.36757291	     15.61377407	      1.36632164	     42.34348929	      0.73903330	      9.82728409	    -18.52500305	      0.00000000	     -3.73123819	    -11.62300507	     -2.70797741	     68.69844979	      1.19901414	     -6.70008000	    -21.57714731	      0.00000000
